<svg width="45" height="44" viewBox="0 0 45 44" fill="none" xmlns="http://www.w3.org/2000/svg">
<path d="M26.8333 26.246V42.915C26.8333 43.547 26.5173 43.863 25.8853 43.863H19.4073C18.7753 43.863 18.4593 43.547 18.4593 42.915V26.246H1.71127C1.44794 26.246 1.21094 26.167 1.00027 26.009C0.842274 25.7983 0.763274 25.5613 0.763274 25.298V19.136C0.763274 18.8727 0.842274 18.662 1.00027 18.504C1.21094 18.2933 1.44794 18.188 1.71127 18.188H18.4593V1.598C18.4593 1.33467 18.5383 1.124 18.6963 0.965998C18.9069 0.755331 19.1439 0.649997 19.4073 0.649997H25.8853C26.1486 0.649997 26.3593 0.755331 26.5173 0.965998C26.7279 1.124 26.8333 1.33467 26.8333 1.598V18.188H43.5023C44.1343 18.188 44.4503 18.504 44.4503 19.136V25.298C44.4503 25.93 44.1343 26.246 43.5023 26.246H26.8333Z" fill="#F04747"/>
</svg>
