<?xml version="1.0" encoding="utf-8"?>
<!-- Generator: Adobe Illustrator 25.0.0, SVG Export Plug-In . SVG Version: 6.00 Build 0)  -->
<svg version="1.1" id="Layer_1" xmlns="http://www.w3.org/2000/svg" xmlns:xlink="http://www.w3.org/1999/xlink" x="0px" y="0px"
	 viewBox="0 0 405.72 282.88" style="enable-background:new 0 0 405.72 282.88;" xml:space="preserve">
<style type="text/css">
	.st0{fill:#fdfdfd;}
</style>
<path class="st0" d="M380.46,210.85c-1.46,8.89-6.62,15.5-13.01,21.44c-5.08,4.72-9.75,9.89-14.98,14.43
	c-10.5,9.1-26.31,8.84-36.85-0.29c-1.48-1.29-2.92-2.63-4.31-4.01c-35.19-35.11-70.38-70.24-105.57-105.36
	c-0.88-0.88-1.81-1.72-2.88-2.74c-1.12,1.07-2.12,1.99-3.08,2.95c-35.35,35.28-70.76,70.52-106.01,105.9
	c-7.14,7.16-15.23,11.03-25.43,9.99c-5.56-0.57-10.7-2.33-14.74-6.21c-7.42-7.12-14.84-14.27-21.79-21.85
	c-8.55-9.33-8.66-25.3-0.75-35.24c1.36-1.71,2.83-3.37,4.38-4.92c48.47-48.49,96.94-96.98,145.43-145.45
	c10.88-10.88,24.28-13.03,36.91-5.73c2.95,1.71,5.62,4.08,8.05,6.51c47.17,47.17,94.25,94.44,141.46,141.57
	c6.16,6.15,11.53,12.57,13.16,21.39C380.46,205.76,380.46,208.31,380.46,210.85z"/>
</svg>
