<svg width="80" height="80" viewBox="0 0 80 80" fill="current" xmlns="http://www.w3.org/2000/svg">
<path d="M40 0C17.9107 0 0 17.9107 0 40C0 62.0893 17.9107 80 40 80C62.0893 80 80 62.0893 80 40C80 17.9107 62.0893 0 40 0ZM40 73.2143C21.6607 73.2143 6.78571 58.3393 6.78571 40C6.78571 21.6607 21.6607 6.78571 40 6.78571C58.3393 6.78571 73.2143 21.6607 73.2143 40C73.2143 58.3393 58.3393 73.2143 40 73.2143Z" fill="current" fill-opacity="0.6"/>
<path d="M55.0922 50.5968L42.5575 41.3578V19.1788C42.5575 18.7845 42.2411 18.4619 41.8543 18.4619H37.6263C37.2395 18.4619 36.9231 18.7845 36.9231 19.1788V43.858C36.9231 44.0909 37.0286 44.306 37.2132 44.4404L51.752 55.2476C52.0684 55.4806 52.5079 55.4089 52.7365 55.0953L55.2505 51.6004C55.479 51.2689 55.4087 50.8208 55.0922 50.5968V50.5968Z" fill="current" fill-opacity="0.6"/>
</svg>
