<svg width="34" height="34" viewBox="0 0 34 34" fill="none" xmlns="http://www.w3.org/2000/svg">
<path d="M10.4615 12.4668C10.8083 12.4668 11.1409 12.5862 11.3862 12.7987C11.6314 13.0113 11.7692 13.2996 11.7692 13.6001V27.2001C11.7692 27.5007 11.6314 27.789 11.3862 28.0015C11.1409 28.2141 10.8083 28.3335 10.4615 28.3335C10.1147 28.3335 9.78206 28.2141 9.53682 28.0015C9.29158 27.789 9.15381 27.5007 9.15381 27.2001V13.6001C9.15381 13.2996 9.29158 13.0113 9.53682 12.7987C9.78206 12.5862 10.1147 12.4668 10.4615 12.4668V12.4668ZM17 12.4668C17.3468 12.4668 17.6794 12.5862 17.9246 12.7987C18.1699 13.0113 18.3077 13.2996 18.3077 13.6001V27.2001C18.3077 27.5007 18.1699 27.789 17.9246 28.0015C17.6794 28.2141 17.3468 28.3335 17 28.3335C16.6531 28.3335 16.3205 28.2141 16.0753 28.0015C15.83 27.789 15.6923 27.5007 15.6923 27.2001V13.6001C15.6923 13.2996 15.83 13.0113 16.0753 12.7987C16.3205 12.5862 16.6531 12.4668 17 12.4668V12.4668ZM24.8461 13.6001C24.8461 13.2996 24.7083 13.0113 24.4631 12.7987C24.2179 12.5862 23.8852 12.4668 23.5384 12.4668C23.1916 12.4668 22.859 12.5862 22.6137 12.7987C22.3685 13.0113 22.2307 13.2996 22.2307 13.6001V27.2001C22.2307 27.5007 22.3685 27.789 22.6137 28.0015C22.859 28.2141 23.1916 28.3335 23.5384 28.3335C23.8852 28.3335 24.2179 28.2141 24.4631 28.0015C24.7083 27.789 24.8461 27.5007 24.8461 27.2001V13.6001Z" fill="#FC7070"/>
<path fill-rule="evenodd" clip-rule="evenodd" d="M34 6.8C34 7.40116 33.7245 7.97769 33.234 8.40278C32.7435 8.82786 32.0783 9.06667 31.3846 9.06667H30.0769V29.4667C30.0769 30.669 29.5258 31.8221 28.5449 32.6722C27.5639 33.5224 26.2334 34 24.8462 34H9.15385C7.76656 34 6.43609 33.5224 5.45513 32.6722C4.47417 31.8221 3.92308 30.669 3.92308 29.4667V9.06667H2.61538C1.92174 9.06667 1.25651 8.82786 0.766028 8.40278C0.275549 7.97769 0 7.40116 0 6.8V4.53333C0 3.93218 0.275549 3.35564 0.766028 2.93056C1.25651 2.50548 1.92174 2.26667 2.61538 2.26667H11.7692C11.7692 1.66551 12.0448 1.08897 12.5353 0.663891C13.0257 0.238809 13.691 0 14.3846 0L19.6154 0C20.309 0 20.9743 0.238809 21.4647 0.663891C21.9552 1.08897 22.2308 1.66551 22.2308 2.26667H31.3846C32.0783 2.26667 32.7435 2.50548 33.234 2.93056C33.7245 3.35564 34 3.93218 34 4.53333V6.8ZM6.84708 9.06667L6.53846 9.2004V29.4667C6.53846 30.0678 6.81401 30.6444 7.30449 31.0694C7.79497 31.4945 8.4602 31.7333 9.15385 31.7333H24.8462C25.5398 31.7333 26.205 31.4945 26.6955 31.0694C27.186 30.6444 27.4615 30.0678 27.4615 29.4667V9.2004L27.1529 9.06667H6.84708ZM2.61538 6.8V4.53333H31.3846V6.8H2.61538Z" fill="#FC7070"/>
</svg>
