<svg width="27" height="43" viewBox="0 0 27 43" fill="none" xmlns="http://www.w3.org/2000/svg">
<path d="M10.8 37.625C10.8 40.5812 8.37 43 5.4 43C2.43 43 0 40.5812 0 37.625C0 34.6688 2.43 32.25 5.4 32.25C8.37 32.25 10.8 34.6688 10.8 37.625ZM5.4 16.125C2.43 16.125 0 18.5438 0 21.5C0 24.4562 2.43 26.875 5.4 26.875C8.37 26.875 10.8 24.4562 10.8 21.5C10.8 18.5438 8.37 16.125 5.4 16.125ZM5.4 0C2.43 0 0 2.41875 0 5.375C0 8.33125 2.43 10.75 5.4 10.75C8.37 10.75 10.8 8.33125 10.8 5.375C10.8 2.41875 8.37 0 5.4 0ZM21.6 10.75C24.57 10.75 27 8.33125 27 5.375C27 2.41875 24.57 0 21.6 0C18.63 0 16.2 2.41875 16.2 5.375C16.2 8.33125 18.63 10.75 21.6 10.75ZM21.6 16.125C18.63 16.125 16.2 18.5438 16.2 21.5C16.2 24.4562 18.63 26.875 21.6 26.875C24.57 26.875 27 24.4562 27 21.5C27 18.5438 24.57 16.125 21.6 16.125ZM21.6 32.25C18.63 32.25 16.2 34.6688 16.2 37.625C16.2 40.5812 18.63 43 21.6 43C24.57 43 27 40.5812 27 37.625C27 34.6688 24.57 32.25 21.6 32.25Z" fill="#848080"/>
</svg>
