<svg width="77" height="77" viewBox="0 0 77 77" fill="none" xmlns="http://www.w3.org/2000/svg">
<path d="M68.4177 43.2523L68.5113 67.3299C68.5113 67.751 68.4846 68.142 68.4444 68.548V70.9844C68.4444 74.308 66.0516 77 63.0972 77H60.9583C60.8113 77 60.6642 76.8646 60.5172 76.985C60.33 76.8646 60.1429 77 59.9557 77H52.4028C49.4484 77 47.0556 74.308 47.0556 70.9844V57.75C47.0556 55.0881 45.1439 52.9375 42.7778 52.9375H34.2222C31.8561 52.9375 29.9444 55.0881 29.9444 57.75V70.9844C29.9444 74.308 27.5516 77 24.5972 77H17.1245C16.924 77 16.7234 76.985 16.5229 76.9699C16.3625 76.985 16.2021 77 16.0417 77H13.9028C10.9498 77 8.55556 74.308 8.55556 70.9844V54.1406C8.55556 54.0053 8.55957 53.8549 8.56759 53.7195V43.2523H4.28446C1.8742 43.2523 0 41.1318 0 38.4248C0 37.0713 0.401576 35.8682 1.33814 34.8154L35.6125 1.20553C36.5483 0.150691 37.6177 0 38.5535 0C39.4892 0 40.5587 0.301383 41.3741 1.05484L55.6111 15.1443V9.625C55.6111 6.9676 57.5227 4.8125 59.8889 4.8125H64.1667C66.5328 4.8125 68.4444 6.9676 68.4444 9.625V27.8223L75.5028 34.8154C76.5722 35.8682 77.1203 37.0713 76.9733 38.4248C76.9733 41.1318 74.9681 43.2523 72.6955 43.2523H68.4177Z" fill="black" fill-opacity="0.4"/>
</svg>
