<svg width="77" height="68" viewBox="0 0 77 68" fill="none" xmlns="http://www.w3.org/2000/svg">
<path d="M77 38.4878L76.9994 55.3328C76.8646 61.9806 71.601 67.38 64.9688 67.38C60.9879 67.38 57.75 64.1373 57.75 60.1517V40.9243C57.75 36.9387 60.9834 33.69 64.9688 33.69C66.5975 33.69 68.1134 34.0995 69.5256 34.6944C67.6307 19.1161 54.4564 7.23884 38.5 7.23884C22.5436 7.23884 9.36783 19.1161 7.47441 34.6977C8.88658 34.0961 10.4025 33.69 12.0312 33.69C16.0166 33.69 19.25 36.9387 19.25 40.9243V60.1607C19.25 64.1313 16.0166 67.38 12.0312 67.38C5.39752 67.38 0.135352 61.9836 0.135352 55.3388L0 38.5029C0 17.2661 17.2648 0 38.5 0C59.69 0 76.9398 17.221 76.8646 38.3976C76.8646 38.4277 76.8646 38.4577 77 38.4878Z" fill="#F96868"/>
</svg>
