<svg width="343" height="242" viewBox="0 0 343 242" fill="none" xmlns="http://www.w3.org/2000/svg">
<path d="M182.257 2.21011C175.333 -0.597858 167.193 0.52035 161.521 5.05326L80.2597 69.9466H29.8027C13.8407 69.9466 0.901367 81.5779 0.901367 95.4392V146.911C0.901367 161.26 13.8407 172.404 29.8027 172.404H80.2837L161.509 237.299C165.112 240.174 169.685 241.68 174.309 241.68C176.982 241.68 179.712 241.172 182.239 240.14C189.164 237.35 193.571 231.177 193.571 224.358V17.9873C193.035 11.1731 189.182 4.99751 182.257 2.21011ZM310.326 121.419L338.644 95.9642C344.289 90.89 344.289 82.6712 338.644 77.5944C332.999 72.5175 323.856 72.5202 318.208 77.5944L289.915 103.558L261.074 78.0653C255.429 72.9911 246.286 72.9911 240.638 78.0653C234.99 83.1394 234.993 91.3582 240.638 96.4351L268.955 121.89L240.638 147.344C234.993 152.418 234.993 160.637 240.638 165.714C246.282 170.787 255.426 170.791 261.074 165.714L289.915 140.254L318.232 165.709C323.876 170.782 333.02 170.786 338.668 165.709C344.313 160.635 344.313 152.416 338.668 147.339L310.326 121.419Z" fill="black"/>
</svg>
