<svg width="73" height="77" viewBox="0 0 73 77" fill="current" xmlns="http://www.w3.org/2000/svg">
<path d="M36.0938 43.3125H26.4688C19.8215 43.3125 14.4375 48.6965 14.4375 55.3438C14.4375 56.6672 15.5203 57.75 16.8438 57.75H45.7188C47.0476 57.75 48.125 56.6726 48.125 55.3438C48.125 48.6965 42.741 43.3125 36.0938 43.3125ZM31.2812 38.5C36.5976 38.5 40.9062 34.1913 40.9062 28.875C40.9062 23.5587 36.5976 19.25 31.2812 19.25C25.9664 19.25 21.6562 23.5587 21.6562 28.875C21.6562 34.1913 25.9725 38.5 31.2812 38.5ZM69.7812 48.125H67.375V62.5625H69.7812C71.1101 62.5625 72.1875 61.4851 72.1875 60.1562V50.5312C72.1875 49.2078 71.1047 48.125 69.7812 48.125ZM69.7812 9.625H67.375V24.0625H69.7812C71.1047 24.0625 72.1875 22.9797 72.1875 21.6562V12.0312C72.1875 10.7018 71.1047 9.625 69.7812 9.625ZM69.7812 28.875H67.375V43.3125H69.7812C71.1047 43.3125 72.1875 42.2297 72.1875 40.9062V31.2812C72.1875 29.9578 71.1047 28.875 69.7812 28.875ZM52.9375 0H9.625C4.30869 0 0 4.30869 0 9.625V67.375C0 72.6913 4.30869 77 9.625 77H52.9375C58.2538 77 62.5625 72.6913 62.5625 67.375V9.625C62.5625 4.30869 58.2463 0 52.9375 0ZM55.3438 67.375C55.3438 68.7039 54.2664 69.7812 52.9375 69.7812H9.625C8.29615 69.7812 7.21875 68.7039 7.21875 67.375V9.625C7.21875 8.29585 8.29615 7.21875 9.625 7.21875H52.9375C54.2664 7.21875 55.3438 8.29585 55.3438 9.625V67.375Z" fill="current" fill-opacity="0.4"/>
</svg>
