<svg width="77" height="68" viewBox="0 0 77 68" fill="none" xmlns="http://www.w3.org/2000/svg">
<path d="M0 9.625C0 4.30869 3.82995 0 8.55556 0H68.4444C73.1634 0 77 4.30869 77 9.625V57.75C77 63.0588 73.1634 67.375 68.4444 67.375H8.55556C3.82995 67.375 0 63.0588 0 57.75V9.625ZM21.3889 33.6875C21.3889 31.0256 19.4773 28.875 17.1111 28.875C14.745 28.875 12.8333 31.0256 12.8333 33.6875C12.8333 36.3494 14.745 38.5 17.1111 38.5C19.4773 38.5 21.3889 36.3494 21.3889 33.6875ZM21.3889 19.25C21.3889 16.5881 19.4773 14.4375 17.1111 14.4375C14.745 14.4375 12.8333 16.5881 12.8333 19.25C12.8333 21.9119 14.745 24.0625 17.1111 24.0625C19.4773 24.0625 21.3889 21.9119 21.3889 19.25ZM21.3889 48.125C21.3889 45.4631 19.4773 43.3125 17.1111 43.3125C14.745 43.3125 12.8333 45.4631 12.8333 48.125C12.8333 50.7869 14.745 52.9375 17.1111 52.9375C19.4773 52.9375 21.3889 50.7869 21.3889 48.125ZM29.9444 15.6406C28.1665 15.6406 26.7361 17.2498 26.7361 19.25C26.7361 21.2502 28.1665 22.8594 29.9444 22.8594H59.8889C61.6668 22.8594 63.0972 21.2502 63.0972 19.25C63.0972 17.2498 61.6668 15.6406 59.8889 15.6406H29.9444ZM29.9444 30.0781C28.1665 30.0781 26.7361 31.6873 26.7361 33.6875C26.7361 35.6877 28.1665 37.2969 29.9444 37.2969H59.8889C61.6668 37.2969 63.0972 35.6877 63.0972 33.6875C63.0972 31.6873 61.6668 30.0781 59.8889 30.0781H29.9444ZM29.9444 44.5156C28.1665 44.5156 26.7361 46.1248 26.7361 48.125C26.7361 50.1252 28.1665 51.7344 29.9444 51.7344H59.8889C61.6668 51.7344 63.0972 50.1252 63.0972 48.125C63.0972 46.1248 61.6668 44.5156 59.8889 44.5156H29.9444Z" fill="#F96868"/>
</svg>
