<svg width="77" height="77" viewBox="0 0 77 77" fill="current" xmlns="http://www.w3.org/2000/svg">
<path d="M76.4786 12.3892C76.1311 10.7665 74.8344 9.625 73.3505 9.625H59.8755C59.9079 7.75264 59.8899 6.06074 59.8547 4.6591C59.7953 2.04982 57.9104 0 55.5844 0H21.4156C19.0896 0 17.2047 2.04982 17.1378 4.6591C16.9908 6.06074 17.0844 7.75264 17.1245 9.625H3.64411C2.16025 9.625 0.873842 10.7665 0.522931 12.3892C0.414382 12.9005 -2.10015 25.1453 4.95551 36.9811C9.96051 45.3759 18.4038 51.2727 30.0206 54.6369C32.5205 55.3595 34.2195 57.9545 34.2195 60.8586C34.2222 64.4424 31.6154 67.375 28.4205 67.375H27.8055C24.2617 67.375 21.3902 70.6069 21.3902 74.5938C21.3902 75.9226 22.3478 77 23.4088 77H53.2329C54.4141 77 55.2515 75.9226 55.2515 74.5938C55.2515 70.6069 52.38 67.375 48.8362 67.375H48.2154C45.0257 67.375 42.419 64.4424 42.419 60.8556C42.419 57.9515 44.118 55.3558 46.6179 54.6339C58.2427 51.2742 66.6833 45.3774 71.683 36.978C79.0988 25.1453 76.5856 12.9005 76.4786 12.3892ZM10.3482 33.0559C6.61315 26.8598 6.2843 20.408 6.46744 16.8438H17.214C17.9304 25.81 19.9344 36.56 24.9234 45.2826C18.3677 42.35 13.4883 38.2594 10.3482 33.0559ZM66.6531 33.0559C63.5196 38.2594 58.6403 42.3425 52.0819 45.2706C57.0682 36.56 59.0734 25.807 59.7819 16.8438H70.5285C70.5967 20.408 70.3828 26.8748 66.6531 33.0559Z" fill="current" fill-opacity="0.6"/>
</svg>
