<svg width="56" height="56" viewBox="0 0 56 56" fill="none" xmlns="http://www.w3.org/2000/svg">
<path d="M54.6732 47.991L41.8147 35.1339C44.7388 30.7935 46.1814 25.3703 45.4091 19.5917C44.0921 9.76253 36.0354 1.76368 26.1955 0.518039C11.5657 -1.33296 -0.736312 10.9677 1.115 25.5959C2.3611 35.439 10.3619 43.5012 20.1932 44.8116C25.9725 45.5838 31.3973 44.1418 35.7372 41.2177L48.5957 54.0747C50.2736 55.7524 52.9946 55.7524 54.6725 54.0747C56.349 52.3948 56.349 49.6666 54.6732 47.991ZM9.42691 22.6743C9.42691 15.0933 15.5951 8.9258 23.177 8.9258C30.7588 8.9258 36.927 15.0933 36.927 22.6743C36.927 30.2554 30.7588 36.4229 23.177 36.4229C15.5951 36.4229 9.42691 30.2575 9.42691 22.6743Z" fill="black" fill-opacity="0.6"/>
</svg>
