<svg width="54" height="39" viewBox="0 0 54 39" fill="none" xmlns="http://www.w3.org/2000/svg">
<path d="M54 3.89118C54 4.88683 53.6233 5.88297 52.87 6.64175L22.0128 37.7712C21.2625 38.5348 20.2741 38.9118 19.2857 38.9118C18.2973 38.9118 17.3113 38.5318 16.5592 37.7718L1.13063 22.2071C0.377277 21.4501 0 20.453 0 19.4559C0 17.233 1.80201 15.5647 3.85714 15.5647C4.84409 15.5647 5.83152 15.9447 6.58366 16.7047L19.2857 29.5243L47.4188 1.14303C48.1661 0.380606 49.1545 0 50.1429 0C52.204 0 54 1.66591 54 3.89118Z" fill="#51A31E" fill-opacity="0.87"/>
</svg>
