<svg width="77" height="68" viewBox="0 0 77 68" fill="current" xmlns="http://www.w3.org/2000/svg">
<path d="M24.0625 57.75H14.4375C11.7801 57.75 9.625 55.5949 9.625 52.9375V14.4375C9.625 11.7801 11.7801 9.625 14.4375 9.625H24.0625C26.7199 9.625 28.875 7.4699 28.875 4.8125C28.875 2.1551 26.7244 0 24.0625 0H14.4375C6.46379 0 0 6.46379 0 14.4375V52.9375C0 60.9112 6.46379 67.375 14.4375 67.375H24.0625C26.7199 67.375 28.875 65.2199 28.875 62.5625C28.875 59.9051 26.7244 57.75 24.0625 57.75ZM75.5863 30.2887L56.3363 11.0387C54.4549 9.15729 51.4095 9.16029 49.5312 11.0387C47.6513 12.9186 47.6513 15.964 49.5312 17.8438L60.5773 28.875H28.875C26.2131 28.875 24.0625 31.0256 24.0625 33.6875C24.0625 36.3494 26.2146 38.5 28.875 38.5H60.5773L49.5417 49.5357C47.6618 51.4155 47.6618 54.461 49.5417 56.3408C51.4216 58.2207 54.467 58.2207 56.3469 56.3408L75.5969 37.0908C77.4662 35.2064 77.4662 32.1686 75.5863 30.2887Z" fill="current" fill-opacity="0.4"/>
</svg>
