<svg width="77" height="77" viewBox="0 0 77 77" fill="current" fill-opacity="0.6" xmlns="http://www.w3.org/2000/svg">
<path d="M36.9238 45.7188H23.2941C10.432 45.7188 0 57.3891 0 71.7814C0 74.6689 2.08612 77 4.65883 77H55.5618C58.1345 77 60.2179 74.6689 60.2179 71.7814C60.2179 57.3891 49.7873 45.7188 36.9238 45.7188ZM30.109 38.5C39.6121 38.5 47.3141 29.8811 47.3141 19.25C47.3141 8.61889 39.6121 0 30.109 0C20.6058 0 12.9038 8.61889 12.9038 19.25C12.9038 29.8811 20.6058 38.5 30.109 38.5Z" fill="current"/>
<path fill-rule="evenodd" clip-rule="evenodd" d="M53.3131 24.271C51.3948 26.8057 50.3476 29.9664 50.3462 33.2261C50.3462 41.0686 56.3333 47.4658 63.6731 47.4658C71.0129 47.4658 77 41.0686 77 33.2261C77 25.3835 71.0129 18.9863 63.6731 18.9863C60.8656 18.9889 58.1313 19.9431 55.8635 21.7115C53.5958 23.4799 53.3131 24.271 53.3131 24.271ZM73.6683 33.2261C73.6683 27.3094 69.2105 22.5463 63.6731 22.5463C58.1358 22.5463 53.6779 27.3094 53.6779 33.2261C53.6779 39.1427 58.1358 43.9058 63.6731 43.9058C69.2105 43.9058 73.6683 39.1427 73.6683 33.2261Z" fill="current"/>
<path d="M62.0072 26.1062V31.4461H57.0097V35.006H62.0072V40.3459H65.339V35.006H70.3366V31.4461H65.339V26.1062H62.0072Z" fill="current" fill-opacity="0.6"/>
</svg>
