<svg width="77" height="77" viewBox="0 0 77 77" fill="current" xmlns="http://www.w3.org/2000/svg">
<path d="M62.5625 0H52.9375C50.2801 0 48.125 2.46297 48.125 5.5C48.125 8.53703 50.2801 11 52.9375 11H62.5625C65.2199 11 67.375 13.463 67.375 16.5V60.5C67.375 63.537 65.2199 66 62.5625 66H52.9375C50.2801 66 48.125 68.463 48.125 71.5C48.125 74.537 50.2801 77 52.9375 77H62.5625C70.5362 77 77 69.6128 77 60.5V16.5C77 7.38719 70.5332 0 62.5625 0ZM51.5238 34.6156L32.2738 12.6156C30.3924 10.4655 27.347 10.4689 25.4687 12.6156C23.5888 14.7641 23.5888 18.2445 25.4687 20.393L36.5148 33H4.8125C2.15209 33 0 35.4578 0 38.5C0 41.5422 2.15209 44 4.8125 44H36.5148L25.4792 56.6122C23.5993 58.7606 23.5993 62.2411 25.4792 64.3895C27.3591 66.538 30.4045 66.538 32.2844 64.3895L51.5344 42.3895C53.4037 40.2359 53.4037 36.7641 51.5238 34.6156Z" fill="current" fill-opacity="0.6"/>
</svg>
