<svg width="143" height="146" viewBox="0 0 143 146" fill="none" xmlns="http://www.w3.org/2000/svg">
<path d="M71.5 0L96.2957 38.1422L139.501 50.424L111.62 86.2789L113.527 132.012L71.5 116.029L29.4734 132.012L31.3797 86.2789L3.49946 50.424L46.7043 38.1422L71.5 0Z" fill="#E39854"/>
<ellipse cx="71.4996" cy="72.9742" rx="42.9" ry="43.7845" fill="#F7D881"/>
<path d="M60.4033 85.08C64.4993 81.5387 67.7206 78.6373 70.0673 76.376C72.4566 74.072 74.4406 71.6827 76.0193 69.208C77.5979 66.7333 78.3873 64.2587 78.3873 61.784C78.3873 59.224 77.7686 57.2187 76.5313 55.768C75.3366 54.3173 73.4379 53.592 70.8353 53.592C68.3179 53.592 66.3553 54.4027 64.9473 56.024C63.5819 57.6027 62.8566 59.736 62.7713 62.424H55.7313C55.8593 57.56 57.3099 53.848 60.0833 51.288C62.8993 48.6853 66.4619 47.384 70.7713 47.384C75.4219 47.384 79.0486 48.664 81.6513 51.224C84.2966 53.784 85.6193 57.1973 85.6193 61.464C85.6193 64.536 84.8299 67.5013 83.2513 70.36C81.7153 73.176 79.8593 75.7147 77.6833 77.976C75.5499 80.1947 72.8193 82.776 69.4913 85.72L66.6113 88.28H86.8993V94.36H55.7953V89.048L60.4033 85.08Z" fill="#C16B3F"/>
</svg>
