<svg width="143" height="146" viewBox="0 0 143 146" fill="none" xmlns="http://www.w3.org/2000/svg">
<path d="M71.5 0L96.2957 38.1422L139.501 50.424L111.62 86.2789L113.527 132.012L71.5 116.029L29.4734 132.012L31.3797 86.2789L3.49946 50.424L46.7043 38.1422L71.5 0Z" fill="#E39854"/>
<ellipse cx="71.4996" cy="72.9742" rx="42.9" ry="43.7845" fill="#F7D881"/>
<path d="M56.712 59.864C56.968 55.896 58.4827 52.8027 61.256 50.584C64.072 48.3653 67.656 47.256 72.008 47.256C74.9947 47.256 77.576 47.7893 79.752 48.856C81.928 49.9227 83.5707 51.3733 84.68 53.208C85.7893 55.0427 86.344 57.112 86.344 59.416C86.344 62.0613 85.64 64.3227 84.232 66.2C82.824 68.0773 81.1387 69.336 79.176 69.976V70.232C81.6933 71 83.656 72.408 85.064 74.456C86.472 76.4613 87.176 79.0427 87.176 82.2C87.176 84.7173 86.6 86.9573 85.448 88.92C84.296 90.8827 82.5893 92.44 80.328 93.592C78.0667 94.7013 75.3573 95.256 72.2 95.256C67.592 95.256 63.7947 94.0827 60.808 91.736C57.864 89.3467 56.2853 85.9333 56.072 81.496H63.112C63.2827 83.7573 64.1573 85.6133 65.736 87.064C67.3147 88.472 69.448 89.176 72.136 89.176C74.7387 89.176 76.744 88.472 78.152 87.064C79.56 85.6133 80.264 83.7573 80.264 81.496C80.264 78.5093 79.304 76.3973 77.384 75.16C75.5067 73.88 72.6053 73.24 68.68 73.24H67.016V67.224H68.744C72.2 67.1813 74.824 66.6053 76.616 65.496C78.4507 64.3867 79.368 62.6373 79.368 60.248C79.368 58.2 78.7067 56.5787 77.384 55.384C76.0613 54.1467 74.184 53.528 71.752 53.528C69.3627 53.528 67.5067 54.1467 66.184 55.384C64.8613 56.5787 64.072 58.072 63.816 59.864H56.712Z" fill="#C16B3F"/>
</svg>
