<?xml version="1.0" encoding="utf-8"?>
<!-- Generator: Adobe Illustrator 25.0.0, SVG Export Plug-In . SVG Version: 6.00 Build 0)  -->
<svg version="1.1" id="Layer_1" xmlns="http://www.w3.org/2000/svg" xmlns:xlink="http://www.w3.org/1999/xlink" x="0px" y="0px"
	 viewBox="0 0 73.38 75.67" style="enable-background:new 0 0 73.38 75.67;" xml:space="preserve">
<style type="text/css">
	.st0{fill:#E83E3F;}
	.st1{fill:#97C348;}
</style>
<path class="st0" d="M51.35,21.88c3.3,1.67,6.17,3.89,8.55,6.75c2,2.41,3.46,5.09,4.5,8.04c1.1,3.13,1.24,6.38,0.92,9.58
	c-0.47,4.59-2.36,8.67-5.33,12.24c-2.57,3.09-5.68,5.44-9.27,7.18c-2.01,0.97-4.13,1.68-6.29,2.19c-3.19,0.75-6.48,0.81-9.69,0.49
	c-5.17-0.52-9.96-2.32-14.17-5.44c-3.05-2.26-5.59-5.03-7.37-8.39c-1.68-3.17-2.64-6.54-2.7-10.21c-0.06-3.86,0.62-7.5,2.34-10.93
	c1.84-3.67,4.5-6.66,7.78-9.11c1.39-1.04,2.86-1.97,4.49-2.62c0.26-0.16,0.49-0.03,0.72,0.06c1.88,0.76,3.8,0.69,5.74,0.32
	c0.88-0.17,1.1-0.04,1.29,0.82c0.14,0.61-0.01,1.17-0.24,1.73c-0.4,0.94-0.97,1.78-1.55,2.61c-0.52,0.75-0.88,1.57-1.11,2.45
	c-0.08,0.32-0.08,0.54,0.38,0.51c1.18-0.07,2.36-0.19,3.53-0.29c1.76-0.15,2.93-1.2,3.78-2.66c0.31-0.53,0.55-1.11,0.85-1.66
	c0.48-0.86,0.8-0.9,1.43-0.15c1.35,1.63,2.98,2.85,5.03,3.41c1.53,0.42,2.77,1.22,3.79,2.41c0.11,0.12,0.2,0.27,0.42,0.33
	c0.31-1.92,0.08-3.74-0.91-5.42c-0.62-1.05-1.33-2.02-2.37-2.72c-0.23-0.15-0.54-0.35-0.46-0.65c0.09-0.31,0.46-0.29,0.73-0.28
	c1.65,0.07,3.26-0.12,4.81-0.71C51.11,21.73,51.25,21.76,51.35,21.88z"/>
<g>
	<path class="st1" d="M51.35,21.88c-1.87,0.72-3.81,1-6.08,0.79c3.42,2.44,4.72,5.51,4.09,9.58c-0.29-0.33-0.45-0.51-0.61-0.7
		c-1.07-1.25-2.34-2.13-3.96-2.58c-2.15-0.6-3.89-1.87-5.19-3.7c-0.3-0.42-0.53-0.31-0.74,0.08c-0.3,0.57-0.6,1.14-0.9,1.72
		c-1.03,2-2.62,3.08-4.91,3.11c-0.98,0.02-1.96,0.13-2.94,0.26c-0.43,0.06-0.56,0.02-0.47-0.45c0.18-0.96,0.56-1.83,1.06-2.65
		c0.53-0.86,1.18-1.65,1.59-2.58c0.19-0.41,0.35-0.83,0.36-1.29c0.04-1.17-0.2-1.38-1.32-1.16c-2.15,0.42-4.25,0.27-6.25-0.67
		c-0.47-0.37-1.04-0.61-1.41-1.11c0.33-0.34,0.7-0.17,1.02-0.03c1.85,0.82,3.62,0.52,5.38-0.28c2.48-1.12,5.05-1.54,7.73-0.85
		c0.78,0.2,0.62-0.29,0.53-0.71c-0.52-2.28-1.08-4.55-1.61-6.82c-0.12-0.52-0.28-1.04-0.3-1.58c-0.04-1.07,0.76-1.82,1.69-1.62
		c0.53,2.07,1.08,4.14,1.57,6.22c0.14,0.61,0.33,0.73,0.95,0.57c1.92-0.5,3.73,0.02,5.49,0.79c0.75,0.33,1.49,0.67,2.22,1.03
		c2.25,1.1,4.59,1.22,7,0.62c0.3-0.07,0.6-0.16,0.9-0.24c0.02-0.01,0.05,0.02,0.17,0.06C55.02,19.49,53.45,21,51.35,21.88z"/>
	<path class="st1" d="M38.12,8.65c-1.17,0.21-1.64,0.87-1.38,2c0.63,2.84,1.27,5.67,1.93,8.5c0.13,0.55,0.14,0.74-0.51,0.55
		c-2.92-0.86-5.69-0.32-8.41,0.9c-1.47,0.66-3.02,0.98-4.62,0.28c-0.45-0.19-0.92-0.44-1.45-0.36c-0.95-0.67-1.64-1.57-2.4-2.57
		c0.78,0.01,1.36,0.25,1.93,0.47c1.33,0.51,2.63,0.46,3.95-0.03c1.34-0.5,2.65-1.11,4.06-1.42c1.89-0.42,3.74-0.18,5.69,0.48
		c-0.49-2.12-0.96-4.13-1.43-6.14c-0.23-0.99-0.48-1.97-0.7-2.95c-0.24-1.08,0.24-1.98,1.17-2.2c0.85-0.21,1.67,0.38,1.96,1.43
		C38.02,7.93,38.06,8.29,38.12,8.65z"/>
</g>
</svg>
