<svg width="59" height="58" viewBox="0 0 59 58" fill="none" xmlns="http://www.w3.org/2000/svg">
<path d="M56.4299 47.5826C58.7009 49.8235 58.7009 53.4537 56.4299 55.6946C55.3035 56.815 53.8137 57.3708 52.3239 57.3708C50.8341 57.3708 49.348 56.8105 48.2143 55.6901L29.0688 36.8085L9.92519 55.6856C8.78969 56.815 7.30173 57.3708 5.81377 57.3708C4.32581 57.3708 2.83966 56.815 1.70325 55.6856C-0.567751 53.4447 -0.567751 49.8145 1.70325 47.5737L20.8524 28.6787L1.70325 9.7926C-0.567751 7.55173 -0.567751 3.92152 1.70325 1.68065C3.97426 -0.560217 7.65328 -0.560217 9.92428 1.68065L29.0688 20.5846L48.2179 1.68962C50.4889 -0.551253 54.168 -0.551253 56.439 1.68962C58.71 3.93049 58.71 7.56069 56.439 9.80156L37.2899 28.6966L56.4299 47.5826Z" fill="white"/>
<path d="M56.0787 55.3387L56.0773 55.3401C55.0505 56.3614 53.6902 56.8708 52.3239 56.8708C50.9593 56.8708 49.6014 56.358 48.5658 55.3345L48.5654 55.3341L29.4199 36.4525L29.0689 36.1063L28.7178 36.4525L9.57412 55.3296L9.57259 55.3311C8.53617 56.362 7.17739 56.8708 5.81377 56.8708C4.45035 56.8708 3.09324 56.3621 2.05571 55.331L2.05444 55.3297C-0.0181456 53.2846 -0.0181456 49.9747 2.05444 47.9296L21.2035 29.0346L21.5643 28.6786L21.2035 28.3227L2.05444 9.4367C2.05441 9.43667 2.05438 9.43664 2.05435 9.43661C-0.0181453 7.39152 -0.0181173 4.08161 2.05444 2.03656C4.13069 -0.0121448 7.49667 -0.0121863 9.57297 2.03643C9.57302 2.03648 9.57306 2.03652 9.5731 2.03656L28.7175 20.9404L29.0687 21.2872L29.42 20.9405L48.5691 2.04552C50.6454 -0.00322236 54.0115 -0.00322236 56.0878 2.04552C58.1604 4.09061 58.1604 7.40058 56.0878 9.44566L36.9387 28.3407L36.578 28.6966L36.9387 29.0525L56.0787 47.9385C58.1513 49.9836 58.1513 53.2936 56.0787 55.3387Z" stroke="black" stroke-opacity="0.5"/>
</svg>
